PathFileType	4	(X/Y/Z)	./resultDataOpenSim/trcMotMarkerGrf/sub09/qtm-02-06.trc
DataRate	CameraRate	NumFrames	NumMarkers	Units	OrigDataRate	OrigDataStartFrame	OrigNumFrames
250.000000	250.000000	13	24	m	250.000000	425	485
Frame#	Time	L.Toe.Tip			R.Toe.Tip			L.Ankle.Lat			R.Ankle.Lat			L.Ankle.Med			R.Ankle.Med			L.Heel			R.Heel			L.Knee.Lat			R.Knee.Lat			L.Knee.Med			R.Knee.Med			L.Thigh.Upper			R.Thigh.Upper			L.ASIS			R.ASIS			V.Sacral			L.Acromium			R.Acromium			C7			L.Elbow			R.Elbow			L.Wrist.Lat			R.Wrist.Lat
		X1	Y1	Z1	X2	Y2	Z2	X3	Y3	Z3	X4	Y4	Z4	X5	Y5	Z5	X6	Y6	Z6	X7	Y7	Z7	X8	Y8	Z8	X9	Y9	Z9	X10	Y10	Z10	X11	Y11	Z11	X12	Y12	Z12	X13	Y13	Z13	X14	Y14	Z14	X15	Y15	Z15	X16	Y16	Z16	X17	Y17	Z17	X18	Y18	Z18	X19	Y19	Z19	X20	Y20	Z20	X21	Y21	Z21	X22	Y22	Z22	X23	Y23	Z23	X24	Y24	Z24

425	1.696	1.8005946	0.070286952	0.037743493	1.0162762	0.041497623	0.13676516	1.6442436	0.07437186	0.0062735096	0.89771736	0.12511104	0.18098423	1.6698081	0.10189534	0.098201342	0.93434073	0.15600336	0.093913962	1.585985	0.028741924	0.059895572	0.8338161	0.14405154	0.12612337	1.5410537	0.47779562	-0.041521942	1.2033013	0.47842328	0.25007071	1.5506031	0.47722746	0.08345076	1.1975494	0.46506984	0.12466373	1.3593673	0.85047172	-0.088253036	1.2697287	0.87256349	0.274101	1.4222654	0.94447906	-0.019518551	1.391246	0.95182942	0.2230174	1.2385165	0.99231209	0.07222208	1.3570869	1.398485	-0.08269452	1.3398609	1.4085847	0.24994889	1.2790771	1.4503883	0.080949734	1.192828	1.0749496	-0.14170278	1.219639	1.0515961	0.33290456	1.258851	0.83266053	-0.21197476	1.4410043	0.87856354	0.32583493
426	1.7	1.8034291	0.065164064	0.038812439	1.0170884	0.041705172	0.13672075	1.6477964	0.073836043	0.0056705147	0.90126155	0.12796977	0.18202379	1.67286	0.10093428	0.097814267	0.93812411	0.15811167	0.095212098	1.5876314	0.030015715	0.058349488	0.8375798	0.14863385	0.12682566	1.5487207	0.47877213	-0.042045009	1.2113792	0.47716395	0.25086535	1.5573207	0.47773747	0.083236828	1.2052301	0.46330026	0.12515559	1.3669701	0.85013286	-0.088766313	1.2771166	0.87108193	0.27354994	1.4290178	0.94442431	-0.019912284	1.3981734	0.95081319	0.22258004	1.2453513	0.99187543	0.07202934	1.3631668	1.3979261	-0.083276698	1.3457432	1.4078484	0.24956812	1.2851536	1.4499883	0.080352114	1.1995302	1.0739522	-0.14224493	1.2252951	1.0509997	0.33220588	1.2662592	0.83170935	-0.21210547	1.4453929	0.87648481	0.32622583
427	1.704	1.8059027	0.05978508	0.040172903	1.0179172	0.041939839	0.13650039	1.6510948	0.0733227	0.005045007	0.90470526	0.13110409	0.18318812	1.6756216	0.10001988	0.097396273	0.9422158	0.16026826	0.096575115	1.5891356	0.031262256	0.056838908	0.84167827	0.15339853	0.12743307	1.5568453	0.48002081	-0.042617121	1.2195561	0.47599785	0.25169001	1.5638688	0.47855377	0.082940514	1.2134207	0.46158138	0.12594188	1.3744799	0.85007505	-0.089308048	1.284485	0.86963857	0.27303244	1.4357199	0.94452081	-0.020341817	1.4051011	0.94987615	0.2221173	1.2521953	0.99150068	0.071868046	1.3692639	1.3974576	-0.083845617	1.3516047	1.4072208	0.24918265	1.291202	1.4496152	0.079732995	1.2062814	1.0730214	-0.14283126	1.2310984	1.050532	0.33163776	1.2737596	0.8308195	-0.21219479	1.4497128	0.87441202	0.32661965
428	1.708	1.8081823	0.054320947	0.041737784	1.0186929	0.042217122	0.13630763	1.6541128	0.072812994	0.004475097	0.90758443	0.13492379	0.18453367	1.6781201	0.099098114	0.097066362	0.94658105	0.1625429	0.097995721	1.5905158	0.032537625	0.055494022	0.84607842	0.15831194	0.1281826	1.5652508	0.48129696	-0.043152405	1.2277445	0.47494026	0.25257867	1.5702835	0.4795184	0.082568242	1.2223754	0.45984393	0.12722991	1.3818505	0.85032479	-0.089894094	1.2917625	0.86825566	0.2725283	1.4423748	0.9447773	-0.020811466	1.4119602	0.94902894	0.22162336	1.2590259	0.99113442	0.071709938	1.3753682	1.3970592	-0.084391238	1.3574521	1.4067101	0.24877121	1.2971891	1.4492272	0.07911589	1.2130753	1.0721659	-0.14345409	1.2369905	1.0501888	0.33116003	1.2813519	0.83000709	-0.21224496	1.4539568	0.87235011	0.32701302
429	1.712	1.810368	0.049343892	0.043321508	1.0193637	0.042581999	0.13632589	1.6569427	0.072247033	0.0041010875	0.90957711	0.1395689	0.18612917	1.6803328	0.098150483	0.097011622	0.95117116	0.16500328	0.099463577	1.5917913	0.033788039	0.054273308	0.85072823	0.16340089	0.12926548	1.5737776	0.48239734	-0.043588974	1.2359466	0.47395584	0.25356265	1.5766007	0.48046279	0.082178936	1.2319571	0.45809971	0.12889821	1.3890294	0.85085711	-0.090532582	1.298925	0.86695303	0.27201871	1.4489996	0.9451696	-0.021308509	1.418828	0.94825349	0.22108815	1.2658344	0.99071938	0.071559822	1.3814668	1.3967127	-0.084895822	1.3632885	1.4063125	0.24832235	1.3031099	1.4488112	0.078514225	1.2199051	1.0713956	-0.14408744	1.2429143	1.0499797	0.33072212	1.2890415	0.82928074	-0.21226359	1.4581101	0.87030841	0.3274081
430	1.716	1.8124498	0.045525508	0.04469797	1.0199675	0.043083809	0.13660071	1.6596877	0.071616207	0.0041097032	0.91112428	0.14467173	0.18787062	1.6821681	0.097176798	0.097411287	0.95596554	0.16768752	0.10095529	1.5929522	0.03487473	0.05323614	0.85562288	0.16871358	0.13060817	1.582251	0.48320776	-0.0438863	1.2442632	0.47298007	0.25465278	1.5828051	0.48125262	0.081847566	1.2417604	0.45639489	0.13060265	1.3960088	0.85160747	-0.091226196	1.305994	0.86573679	0.27148869	1.4555865	0.94565252	-0.02181931	1.4259186	0.9475126	0.22049866	1.2726089	0.99024065	0.071443243	1.3875558	1.3964107	-0.085342636	1.3691134	1.4060114	0.24783696	1.3089752	1.4483728	0.077930389	1.226764	1.0707082	-0.1447019	1.248846	1.0499046	0.33028543	1.2968356	0.82863871	-0.21225642	1.4621605	0.86830191	0.32780677
431	1.72	1.8142618	0.043150733	0.045668711	1.0206593	0.043744859	0.13703874	1.6622536	0.071001091	0.0045946837	0.91331496	0.14960967	0.18947409	1.6835427	0.096200057	0.098281933	0.96098413	0.1705911	0.10242539	1.5939444	0.03567544	0.052613062	0.86081467	0.17423026	0.1319544	1.5904614	0.48370427	-0.044045046	1.2527624	0.47197129	0.25583712	1.588847	0.4818117	0.081620566	1.25153	0.45469734	0.13211802	1.4028299	0.8524927	-0.091970054	1.3130337	0.86459436	0.27092924	1.4620858	0.94618443	-0.022334788	1.4334267	0.94677068	0.21984591	1.2792983	0.98973816	0.071367787	1.3936411	1.3961509	-0.085732433	1.3749271	1.4057869	0.24732685	1.3147828	1.4479146	0.077365759	1.2336429	1.0700887	-0.14528235	1.2547792	1.0499389	0.32982011	1.3047384	0.82807393	-0.21222563	1.4661177	0.8663479	0.32820751
432	1.724	1.8155944	0.041958007	0.046271072	1.0216334	0.044563017	0.13750286	1.6643029	0.070524128	0.0054220872	0.91682258	0.15406511	0.19075859	1.6844854	0.095280423	0.099421543	0.96627666	0.17366891	0.10382433	1.5947041	0.03614135	0.052573981	0.86635031	0.17986528	0.13311479	1.598275	0.48393902	-0.044117317	1.2613907	0.47092794	0.25708411	1.5947202	0.48213284	0.08148711	1.2613074	0.4529063	0.13344735	1.4095377	0.85342537	-0.092757749	1.3202678	0.86349196	0.27036735	1.4684402	0.94674596	-0.022859877	1.4412228	0.94602728	0.21914435	1.2858281	0.98927369	0.071294206	1.3997299	1.3959329	-0.086083904	1.3807335	1.4056258	0.24681311	1.320519	1.4474433	0.076833694	1.2405343	1.069522	-0.14582732	1.2607039	1.0500535	0.32929582	1.3127471	0.82757674	-0.21217204	1.4700114	0.86445858	0.32860777
433	1.728	1.8163998	0.04141214	0.046788324	1.0229892	0.045529336	0.13793148	1.6655103	0.070263353	0.0062879571	0.92149066	0.15817829	0.19176705	1.685096	0.094488995	0.10052576	0.97190183	0.17684695	0.10513032	1.5952143	0.036285796	0.052967936	0.87224143	0.18552885	0.13404351	1.6056997	0.48402103	-0.044166965	1.2700294	0.46985265	0.25835685	1.600519	0.48229954	0.081383572	1.2712296	0.45095865	0.13466614	1.416129	0.85432684	-0.093583093	1.3281835	0.8623787	0.26989426	1.4746219	0.94733826	-0.023419364	1.448872	0.94531937	0.21842615	1.2921349	0.98888475	0.071135996	1.4058235	1.3957563	-0.08641673	1.3865374	1.4055238	0.24632022	1.3261916	1.4469957	0.07635144	1.2474418	1.0689957	-0.14633515	1.2666036	1.0502432	0.32868703	1.3208531	0.82713797	-0.21210078	1.4738589	0.86263661	0.32900518
434	1.732	1.816828	0.041081394	0.047401119	1.0246857	0.046626364	0.13836556	1.6658663	0.070191936	0.0069192311	0.92688971	0.16221964	0.19262402	1.6854344	0.0938727	0.10136481	0.97790349	0.1800401	0.10635862	1.5955243	0.036167479	0.053392483	0.87849224	0.19116869	0.13474411	1.6128152	0.48406822	-0.044242706	1.278631	0.46874118	0.25964734	1.6064095	0.48247733	0.08123005	1.281378	0.44886467	0.13583091	1.4225451	0.85514674	-0.094435926	1.3372227	0.86120843	0.26961225	1.4806314	0.94796934	-0.024039676	1.4560747	0.94467754	0.21770659	1.298189	0.98857025	0.070813829	1.4119168	1.3956223	-0.086741629	1.3923359	1.4054823	0.24586604	1.3318461	1.4466315	0.075915066	1.2543701	1.0685	-0.14680387	1.2724677	1.0505229	0.32798848	1.3290493	0.82675311	-0.21202001	1.4776502	0.86087945	0.32939691
435	1.736	1.8170712	0.040799275	0.047992585	1.0266058	0.047815511	0.13888839	1.6656936	0.070212112	0.0072194543	0.93274222	0.16634521	0.19342027	1.6855359	0.093449198	0.10187412	0.98429175	0.18317888	0.10754047	1.5957198	0.035894528	0.053544806	0.88511494	0.19677666	0.13522431	1.6196659	0.48415273	-0.044389595	1.2872404	0.46760109	0.26099313	1.6125301	0.48283927	0.080966825	1.2917914	0.44666635	0.13701187	1.4287243	0.85587482	-0.095306082	1.3470932	0.85997784	0.26950538	1.4864843	0.94864309	-0.024726857	1.4628633	0.94410155	0.21697416	1.3040294	0.98832377	0.070360999	1.4180008	1.3955346	-0.087065969	1.3981195	1.4055033	0.24545812	1.3375399	1.4464013	0.075498585	1.2613061	1.0680327	-0.14724558	1.2783027	1.0509005	0.32722781	1.3373334	0.82642018	-0.21193199	1.4813712	0.85918847	0.32978112
436	1.74	1.8172447	0.040565419	0.048368262	1.0286206	0.049035949	0.13957101	1.6654149	0.070249752	0.0072562976	0.93892657	0.17059239	0.19420317	1.685517	0.093207136	0.10211155	0.99103653	0.18623066	0.10869229	1.5958719	0.035620985	0.053426494	0.89211369	0.20236455	0.1355356	1.6262095	0.48428991	-0.044652515	1.2958803	0.46645804	0.26242908	1.6189098	0.48347448	0.080566082	1.302498	0.44441048	0.13828195	1.434644	0.85653282	-0.096186796	1.3567133	0.85874076	0.26941471	1.4922152	0.94935352	-0.025463933	1.4693829	0.94358028	0.21621443	1.3097635	0.98816054	0.069945864	1.4240642	1.3954975	-0.087397358	1.4038792	1.4055868	0.24509688	1.3433016	1.4463271	0.075077064	1.2682273	1.0675981	-0.14768474	1.2841224	1.0513599	0.32645869	1.3457062	0.82613446	-0.21183389	1.4850223	0.8575719	0.33016057
437	1.744	1.8173928	0.040393901	0.048491045	1.0306444	0.050235672	0.14043669	1.6653141	0.070287673	0.0071511199	0.94539543	0.17494113	0.19499647	1.6855664	0.093107471	0.10216352	0.99808488	0.18919783	0.10980954	1.5960064	0.035492357	0.053211731	0.89947206	0.20793435	0.13579933	1.6323519	0.48446538	-0.045063423	1.3046165	0.46534996	0.26388386	1.6254569	0.48434404	0.080028612	1.3134933	0.44216235	0.13960017	1.440318	0.85715464	-0.097069111	1.3651936	0.85756917	0.26919677	1.4978721	0.95008133	-0.026221646	1.4757203	0.94311293	0.2154305	1.3154911	0.98810028	0.069722975	1.4300982	1.3955133	-0.087735908	1.4096104	1.4057332	0.24477794	1.3491182	1.446401	0.074640486	1.2751242	1.0671956	-0.1481382	1.2899001	1.0518578	0.32571524	1.3541659	0.82589026	-0.21172346	1.4886114	0.85603678	0.33054232
